<svg width="48" height="48" viewBox="0 0 48 48" fill="none" xmlns="http://www.w3.org/2000/svg">
<rect width="48" height="48" fill="#2D3136" style="fill:#2D3136;fill:color(display-p3 0.1765 0.1922 0.2118);fill-opacity:1;"/>
<g clip-path="url(#clip0_12_10)">
<path d="M15.268 34.5403C15.4367 34.5403 15.5708 34.4905 15.6705 34.3908C15.7702 34.2912 15.82 34.157 15.82 33.9883V32.3783C17.4453 32.2097 18.7372 31.7113 19.6955 30.8833C20.6538 30.0553 21.133 28.9743 21.133 27.6403C21.133 26.7357 20.9413 25.992 20.558 25.4093C20.1747 24.8267 19.5805 24.3437 18.7755 23.9603C17.9705 23.577 16.8857 23.232 15.521 22.9253C14.5397 22.68 13.7845 22.45 13.2555 22.2353C12.7265 22.0207 12.3432 21.7753 12.1055 21.4993C11.8678 21.2233 11.749 20.8783 11.749 20.4643C11.749 19.851 11.9905 19.3833 12.4735 19.0613C12.9565 18.7393 13.6197 18.5783 14.463 18.5783C15.2297 18.5783 15.8698 18.7432 16.3835 19.0728C16.8972 19.4025 17.2 19.8127 17.292 20.3033C17.4147 20.5793 17.637 20.7173 17.959 20.7173H20.144C20.282 20.7173 20.397 20.6713 20.489 20.5793C20.581 20.4873 20.627 20.3723 20.627 20.2343C20.5963 19.667 20.3932 19.0843 20.0175 18.4863C19.6418 17.8883 19.0975 17.3632 18.3845 16.9108C17.6715 16.4585 16.8167 16.1633 15.82 16.0253V14.3923C15.82 14.2237 15.7702 14.0895 15.6705 13.9898C15.5708 13.8902 15.4367 13.8403 15.268 13.8403H13.842C13.6887 13.8403 13.5583 13.8902 13.451 13.9898C13.3437 14.0895 13.29 14.2237 13.29 14.3923V15.9793C11.7873 16.1633 10.6028 16.6693 9.7365 17.4973C8.87017 18.3253 8.437 19.3373 8.437 20.5333C8.437 21.852 8.85867 22.864 9.702 23.5693C10.5453 24.2747 11.8717 24.842 13.681 25.2713C14.7697 25.5627 15.5938 25.8118 16.1535 26.0188C16.7132 26.2258 17.131 26.4673 17.407 26.7433C17.683 27.0193 17.821 27.3643 17.821 27.7783C17.821 28.407 17.5488 28.9015 17.0045 29.2618C16.4602 29.6222 15.659 29.8023 14.601 29.8023C13.6503 29.8023 12.9028 29.626 12.3585 29.2733C11.8142 28.9207 11.4577 28.4837 11.289 27.9623C11.197 27.809 11.1012 27.6978 11.0015 27.6288C10.9018 27.5598 10.76 27.5253 10.576 27.5253H8.506C8.368 27.5253 8.24917 27.5752 8.1495 27.6748C8.04983 27.7745 8 27.8857 8 28.0083C8.03067 28.7137 8.24917 29.3768 8.6555 29.9978C9.06183 30.6188 9.65983 31.144 10.4495 31.5733C11.2392 32.0027 12.186 32.271 13.29 32.3783V33.9883C13.29 34.157 13.3437 34.2912 13.451 34.3908C13.5583 34.4905 13.6887 34.5403 13.842 34.5403H15.268Z" fill="#74FFF1" stroke="#74FFF1" style="fill:#74FFF1;fill:color(display-p3 0.4549 1.0000 0.9451);fill-opacity:1;stroke:#74FFF1;stroke:color(display-p3 0.4549 1.0000 0.9451);stroke-opacity:1;" stroke-width="0.5"/>
<path d="M28.2794 29.2404C28.6934 29.2404 28.9617 29.0487 29.0844 28.6654L31.6604 21.0294L34.2364 28.6654C34.2824 28.8187 34.3744 28.9529 34.5124 29.0679C34.6504 29.1829 34.8267 29.2404 35.0414 29.2404H36.6054C36.8354 29.2404 37.0232 29.179 37.1689 29.0564C37.3146 28.9337 37.4027 28.765 37.4334 28.5504L40.1474 13.8074C40.1627 13.7614 40.1704 13.7 40.1704 13.6234C40.1704 13.4854 40.1244 13.3704 40.0324 13.2784C39.9404 13.1864 39.8331 13.1404 39.7104 13.1404H37.6404C37.2571 13.1404 37.0424 13.2937 36.9964 13.6004L35.1104 23.9504L33.0404 17.2804C32.9944 17.127 32.9101 16.9929 32.7874 16.8779C32.6647 16.7629 32.5037 16.7054 32.3044 16.7054H31.0394C30.6867 16.7054 30.4337 16.897 30.2804 17.2804L28.2334 23.9504L26.3244 13.6004C26.2937 13.4317 26.2324 13.3129 26.1404 13.2439C26.0484 13.1749 25.9027 13.1404 25.7034 13.1404H23.6334C23.4954 13.1404 23.3804 13.1864 23.2884 13.2784C23.1964 13.3704 23.1504 13.4854 23.1504 13.6234L23.1734 13.8074L25.8874 28.5504C25.9947 29.0104 26.2707 29.2404 26.7154 29.2404H28.2794Z" fill="white" stroke="white" style="fill:white;fill-opacity:1;stroke:white;stroke-opacity:1;" stroke-width="0.5"/>
</g>
<defs>
<clipPath id="clip0_12_10">
<rect width="33" height="24" fill="white" style="fill:white;fill-opacity:1;" transform="translate(7 12)"/>
</clipPath>
</defs>
</svg>
